PathFileType	4	(X/Y/Z)	Captury_Subj1_squat02.trc
DataRate	CameraRate	NumFrames	NumMarkers	Units	OrigDataRate	OrigDataStartFrame	OrigNumFrames
60.0	60.0	6	47	mm	59.99879837036133	107	284
Frame#	Time		LeftUpLeg_		RightUpLeg_		LeftLeg_		RightLeg_		LeftFoot_		RightFoot_		LeftToeBase_		RightToeBase_		Knee_Lateral_r		Knee_Lateral_l		Ankle_Lateral_r		Ankle_Lateral_l		LeftArm_		LeftForeArm_		LeftHand_		LeftHandEE		RightArm_		RightForeArm_		RightHand_		RightHandEE		Spine_		Spine1_		Spine2_		Spine3_		Spine4_		Spine5_		Spine_x		Spine_y		Spine_z		RASI		LASI		RIPS		LIPS		RTHI		LTHI		RTIB		LTIB		RTOE		LTOE		RHEE		LHEE		RHipAngles		LHipAngles		RKneeAngles		LKneeAngles		RAnkleAngles		LAnkleAngles
			X1	Y1	Z1	X2	Y2	Z2	X3	Y3	Z3	X4	Y4	Z4	X5	Y5	Z5	X6	Y6	Z6	X7	Y7	Z7	X8	Y8	Z8	X9	Y9	Z9	X10	Y10	Z10	X11	Y11	Z11	X12	Y12	Z12	X13	Y13	Z13	X14	Y14	Z14	X15	Y15	Z15	X16	Y16	Z16	X17	Y17	Z17	X18	Y18	Z18	X19	Y19	Z19	X20	Y20	Z20	X21	Y21	Z21	X22	Y22	Z22	X23	Y23	Z23	X24	Y24	Z24	X25	Y25	Z25	X26	Y26	Z26	X27	Y27	Z27	X28	Y28	Z28	X29	Y29	Z29	X30	Y30	Z30	X31	Y31	Z31	X32	Y32	Z32	X33	Y33	Z33	X34	Y34	Z34	X35	Y35	Z35	X36	Y36	Z36	X37	Y37	Z37	X38	Y38	Z38	X39	Y39	Z39	X40	Y40	Z40	X41	Y41	Z41	X42	Y42	Z42	X43	Y43	Z43	X44	Y44	Z44	X45	Y45	Z45	X46	Y46	Z46	X47	Y47	Z47

107	1.76667	-176.71637	843.41699	122.27358	-11.00423	839.66626	114.18821	-205.02344	455.08966	36.87611	18.58169	453.36673	20.43626	-219.82013	87.98755	56.27234	48.68985	87.95859	50.92364	-239.14465	29.28405	-54.53711	74.68029	26.66114	-57.08280	64.30570	454.11630	21.86347	-250.26477	454.50003	43.67016	93.73732	92.27639	70.42642	-262.40854	90.03845	80.97658	-233.70164	1357.94739	-4.62466	-233.42250	1381.41101	-279.97916	-215.84198	1426.96851	-508.27747	-213.13570	1437.30774	-592.80658	34.84333	1347.76111	3.18697	34.42965	1372.96851	-272.01328	22.38680	1423.45764	-499.63254	35.57924	1434.10706	-583.13074	-92.03625	934.26550	112.60237	-92.74978	1027.53174	77.52329	-93.44697	1100.68408	77.28648	-95.23505	1190.55273	99.46748	-100.51894	1323.57532	80.95892	0.00000	0.00000	0.00000	-45.55579	933.21350	110.33451	-91.59973	979.25775	100.67793	-89.57468	946.15149	157.53952	41.23543	875.58777	5.10430	-237.64735	881.89990	18.71144	-53.63685	913.56012	144.90504	-128.00558	915.24335	148.53362	67.69074	659.38727	75.19804	-253.77505	660.33148	94.79086	69.35822	290.13602	21.16258	-250.15855	235.35657	34.84149	87.37770	1.92990	-122.99057	-249.94769	-3.20416	-117.34241	56.63287	33.71223	107.40845	-226.65092	31.44067	110.60544	-27.77898	3.20160	3.89951	-26.69994	-0.79980	5.93981	-12.54945	0.81573	0.02182	-9.70970	0.36745	-0.07060	9.48261	5.59894	11.42989	9.62525	-2.75901	11.61608
108	1.78333	-176.28999	841.47632	127.00776	-10.56959	837.97253	118.98089	-205.90781	454.64407	35.48917	19.08245	452.98099	20.01456	-220.22766	87.59448	56.19198	48.95565	87.58170	50.83646	-239.33844	29.00990	-54.71743	74.76550	26.60349	-57.39374	64.80854	453.74072	21.36816	-251.13622	454.07632	42.37053	94.03345	91.81138	70.28841	-262.77466	89.59530	80.97156	-234.46187	1352.85413	-7.36969	-233.23198	1378.28442	-282.54700	-215.35753	1425.20923	-510.54544	-212.80179	1436.31885	-594.98151	34.09654	1343.13098	0.41886	34.41117	1369.14258	-274.70670	22.36748	1421.01025	-502.01575	35.36701	1431.87756	-585.51617	-91.79997	932.37378	116.20020	-92.71447	1024.92322	79.85688	-93.56873	1097.84644	78.55976	-95.54539	1187.83264	99.33934	-101.13048	1320.30530	78.67015	0.00000	0.00000	0.00000	-45.31720	931.39099	113.94875	-91.45686	977.21332	103.71086	-89.36745	944.82910	160.98447	41.60443	872.62891	9.45721	-237.29224	878.52563	22.96590	-53.36010	912.15704	148.76320	-127.73254	913.72949	152.36551	68.16486	658.28186	77.43832	-253.93927	659.07507	96.77490	69.73727	289.71295	20.84199	-250.78036	234.85107	34.29787	87.33866	2.16013	-123.43260	-250.01288	-3.35703	-117.60728	56.95836	33.16026	107.14413	-227.08955	30.97537	110.44586	-29.26279	3.15702	3.76656	-28.36865	-0.56188	6.05250	-13.37707	0.76183	0.03909	-10.84657	0.30121	-0.07956	9.24745	5.59956	11.44292	9.35656	-2.93855	11.61899
109	1.80000	-175.75275	839.07275	133.06485	-10.05198	835.88617	124.51702	-207.13797	454.42844	33.28595	19.91800	452.67111	18.97013	-220.57779	87.46039	55.93358	49.39714	87.31760	50.70193	-239.73425	28.78086	-54.91775	74.78361	26.89774	-57.94078	65.64777	453.49728	20.14966	-252.31464	453.82785	40.49660	94.55034	91.39257	70.01155	-262.94894	89.42263	81.01572	-235.27698	1346.84045	-10.21404	-232.80351	1374.24585	-285.19324	-214.46770	1422.38916	-512.90076	-213.04063	1434.60046	-597.21118	33.33063	1337.84631	-2.74832	34.57044	1364.41614	-277.81787	22.41834	1417.78137	-504.77423	35.17950	1428.59998	-588.31775	-91.54930	930.01355	120.52427	-92.81871	1021.76202	82.65752	-93.82765	1094.47815	80.10632	-95.89104	1184.65332	99.26279	-101.70284	1316.53650	76.14854	0.00000	0.00000	0.00000	-45.07203	929.11975	118.12669	-91.37180	974.65021	107.32504	-88.99671	943.18365	165.09685	41.64978	868.94183	14.27690	-237.21384	874.30463	28.66234	-52.94243	910.41858	153.26930	-127.30606	911.84863	157.10541	68.84933	657.07324	79.63747	-254.13596	657.58563	99.41740	70.35236	289.33646	20.07715	-251.57928	234.54469	33.51849	87.08331	2.88727	-124.18962	-250.42734	-3.57993	-117.80760	57.59308	32.60055	106.69447	-227.25589	30.85719	110.22701	-31.13484	3.18576	3.68434	-30.57409	-0.29939	6.27309	-14.50442	0.60458	0.05951	-12.41892	0.27461	-0.08415	8.78302	5.60170	11.49148	9.10396	-3.26183	11.62668
110	1.81667	-174.87633	836.73657	139.22348	-9.19478	833.20691	130.44188	-208.40541	454.65463	30.68214	20.53226	452.27490	16.86758	-221.30862	87.81570	55.61745	49.67838	87.11111	50.99856	-240.01791	29.01846	-55.24785	75.00244	27.28023	-57.98412	66.26368	453.06396	18.00747	-253.54956	454.07776	38.09538	94.85114	91.05258	70.29012	-263.56693	89.78922	80.88835	-236.19536	1339.42212	-13.43061	-232.53844	1369.17554	-288.15244	-213.97171	1418.81396	-515.51996	-212.40550	1431.16467	-599.80762	32.43751	1332.14160	-5.96482	34.63477	1359.02246	-280.99817	22.34529	1413.31616	-507.72681	35.30918	1424.39111	-591.20544	-90.59014	927.34833	124.97393	-91.96907	1017.94031	85.53742	-93.18512	1090.14014	81.69370	-95.68346	1180.20361	99.15102	-102.41656	1311.10254	73.47358	0.00000	0.00000	0.00000	-44.11826	926.35834	122.51078	-90.38439	971.75122	111.00891	-87.94347	941.27972	169.30894	42.35001	864.30115	19.55946	-236.48126	870.24127	34.33835	-51.94809	908.27344	157.98343	-126.30309	909.85742	161.92447	69.59850	655.35046	81.73524	-254.20610	656.41516	101.74545	70.81059	288.90274	19.02742	-252.58435	234.72504	32.44852	87.23387	3.72199	-124.40772	-250.45082	-3.35793	-118.17335	57.97390	32.10857	106.69592	-228.10210	31.25075	109.93639	-33.32277	3.34146	3.62820	-32.90684	-0.18675	6.46821	-16.08239	0.60563	0.07149	-14.12821	0.23435	-0.07945	8.09342	5.60629	11.57430	8.81337	-3.70672	11.63549
111	1.83333	-174.14044	833.06366	145.90829	-8.46263	829.69092	136.99541	-209.82123	454.09631	27.57512	21.58111	451.56473	14.47998	-221.94437	87.45193	55.57619	49.69195	86.56799	51.17053	-239.92532	28.49401	-55.32430	75.04042	27.53929	-58.24307	67.31136	452.35672	15.66364	-254.93941	453.52792	35.14555	94.85989	90.25463	70.52361	-264.10950	89.43034	81.00188	-236.94124	1331.05896	-16.62386	-232.50125	1362.55676	-291.13968	-213.49806	1413.62842	-518.15350	-211.77460	1427.12012	-602.26300	31.73437	1324.87891	-9.50532	34.41499	1352.50171	-284.46088	22.21581	1407.66882	-510.98346	35.24502	1419.30286	-594.37585	-90.03206	923.59161	130.15451	-91.64780	1013.21216	89.10163	-93.04011	1085.09180	83.83748	-95.75550	1175.28589	99.33761	-102.91226	1305.30420	70.65627	0.00000	0.00000	0.00000	-43.56123	922.64557	127.65454	-89.92104	967.77203	115.49968	-87.36139	938.21631	174.26425	42.90424	859.14606	25.58413	-235.92078	864.82220	40.58395	-51.31960	905.10138	163.41327	-125.67293	906.61499	167.41324	70.47615	653.08521	84.14913	-254.43298	654.13727	104.05020	71.41039	288.07501	17.82658	-253.58052	234.10745	31.31419	87.27240	4.58181	-124.87660	-249.93993	-3.92934	-118.29358	57.91761	31.14356	106.45853	-228.94774	30.93834	109.92194	-35.57317	3.40910	3.65844	-35.33792	0.09600	6.59701	-17.83621	0.45572	0.07142	-16.12733	0.19607	-0.06168	7.25385	5.61264	11.67066	8.41794	-4.23520	11.64792
112	1.85000	-173.03384	828.83472	153.42232	-7.36779	825.60944	144.24048	-211.69150	453.88754	23.75981	22.43041	450.90216	11.58054	-222.66699	87.50980	55.47767	50.05427	86.19925	51.42799	-240.35886	28.47118	-55.42641	75.21513	27.91694	-58.42818	68.16264	451.65891	12.70945	-256.74951	453.31531	31.68022	95.25768	89.70438	70.73196	-264.62714	89.46802	81.24175	-237.95662	1321.23608	-19.97112	-231.99301	1355.07959	-294.17865	-212.98375	1407.17639	-520.95886	-211.79596	1421.44958	-604.94855	30.77463	1317.24695	-13.41634	34.37817	1345.06873	-288.34125	21.86315	1400.82922	-514.70123	34.75266	1412.92090	-598.05023	-89.13828	919.19519	135.69571	-91.07311	1007.53607	92.80920	-92.72192	1078.90479	85.99643	-95.78913	1169.05811	99.41920	-103.64339	1297.92725	67.63725	0.00000	0.00000	0.00000	-42.67075	918.29053	133.12030	-89.14491	963.07477	120.16299	-86.40862	934.70154	179.49965	43.71709	852.93823	32.15966	-235.08810	858.36609	47.61210	-50.32248	901.44751	169.23738	-124.67055	902.89496	173.35803	71.46344	650.47864	86.54733	-254.61584	651.69666	106.73025	72.02502	287.37482	16.29532	-254.86511	233.84032	30.02202	87.31018	5.50914	-125.27348	-250.20242	-3.93883	-118.42950	58.39145	30.40398	106.32493	-229.65579	31.00696	109.83649	-38.25532	3.42538	3.62001	-38.30279	0.46530	6.90331	-19.87542	0.42876	0.05937	-18.50268	0.15700	-0.04091	6.35514	5.61191	11.74401	7.88435	-4.78117	11.66685
